<svg width="39" height="24" viewBox="0 0 39 24" fill="none" xmlns="http://www.w3.org/2000/svg">
<rect x="1" y="6" width="32" height="12" rx="6" fill="white" stroke="white" stroke-width="2"/>
<g filter="url(#filter0_d_22_3940)">
<circle cx="27" cy="12" r="9" fill="white"/>
<g clip-path="url(#clip0_22_3940)">
<path d="M25.0549 8.8501C24.861 8.8501 24.7031 9.0055 24.7 9.1994V15.1007C24.7031 15.2946 24.861 15.45 25.0549 15.45C25.1151 15.45 25.1746 15.4347 25.2281 15.406L30.5656 12.4607C30.679 12.3984 30.7494 12.2794 30.7494 12.1502C30.7494 12.0208 30.679 11.9018 30.5656 11.8395L25.2285 8.8886C25.1742 8.862 25.1147 8.8487 25.0549 8.8501Z" fill="black"/>
</g>
</g>
<defs>
<filter id="filter0_d_22_3940" x="15" y="0" width="24" height="24" filterUnits="userSpaceOnUse" color-interpolation-filters="sRGB">
<feFlood flood-opacity="0" result="BackgroundImageFix"/>
<feColorMatrix in="SourceAlpha" type="matrix" values="0 0 0 0 0 0 0 0 0 0 0 0 0 0 0 0 0 0 127 0" result="hardAlpha"/>
<feOffset/>
<feGaussianBlur stdDeviation="1.5"/>
<feComposite in2="hardAlpha" operator="out"/>
<feColorMatrix type="matrix" values="0 0 0 0 0 0 0 0 0 0 0 0 0 0 0 0 0 0 0.25 0"/>
<feBlend mode="normal" in2="BackgroundImageFix" result="effect1_dropShadow_22_3940"/>
<feBlend mode="normal" in="SourceGraphic" in2="effect1_dropShadow_22_3940" result="shape"/>
</filter>
<clipPath id="clip0_22_3940">
<rect width="7" height="7" fill="white" transform="translate(24 8.5)"/>
</clipPath>
</defs>
</svg>
